#!OML:ASF F:\VICON\USERDATA\INSTALL\rory3\rory3.ASF
:FULLY-SPECIFIED
:DEGREES
37
root -0.003249907351327186 18.177666849135477 6.414171238138143 5.23965413954611 -4.1891650826462365 -0.602116559975941
lfemur 13.092471512824316 -3.3221478834837375 -27.35595359317045
ltibia 56.605280970090234
lfoot 20.585571961751498 -14.32350844292364
ltoes -10.334299411037279
rfemur -36.97434048514197 -2.9230734601828283 28.5748386836478
rtibia 26.717966693971604
rfoot -1.3359939444394584 -4.208756303197781
rtoes -18.368728000281784
lowerback 14.172504707470374 -1.2289041952269417 -2.0918470414965737
upperback -0.8783942937093059 -2.1358118713112697 1.9090607870522487
thorax -9.14587718183822 -0.744360579301223 5.015054955075496
lowerneck -21.079286724068137 -2.9812972422409323 -2.019355392788069
upperneck 14.986148377408314 -3.8331213243897335 2.540173665561481
head 8.21158027702305 -1.6264545046420806 0.678290125326819
lclavicle -1.727670463303754e-15 1.7844726869093277e-15
lhumerus -35.374784939771544 -18.202051637890523 94.56095195806424
lradius 114.12368164955767
lwrist 32.92665111312981
lhand -24.461925998062956 1.4895887455293702
lfingers 7.12502
lthumb 1.7914438011314668 31.0013401590126
rclavicle -1.7241771651285154e-15 1.7876642852042743e-15
rhumerus -60.7775634849733 7.676371599997199 -94.69336186184069
rradius 110.46573815591884
rwrist -12.036970189970175
rhand -14.812840737810058 38.84712414171741
rfingers 7.12502
rthumb 11.18091787900766 10.60651650921678
38
root 0.030075234270497214 18.068159313501013 7.484515045436463 4.8009528518770885 -4.810868498468169 -1.3536575179359576
lfemur 11.177517819152738 -2.2258804086972184 -26.11687162530855
ltibia 63.940745271437656
lfoot 19.003318427689468 -13.735358514705695
ltoes -6.551445450623678
rfemur -35.658995686746266 -3.3081341224028145 29.938508073953283
rtibia 31.712295581714088
rfoot -1.618066208362273 -1.0347746431878706
rtoes -15.82163220287255
lowerback 14.388068599241976 -1.0622041279696544 -1.2048998385866774
upperback -0.7720125486835356 -1.7706544586860766 2.0982695009033385
thorax -9.492970912693165 -0.5876297578804507 4.641967698200433
lowerneck -20.798785089220246 -2.9925599589299123 -2.0598329067857213
upperneck 14.764621952085323 -3.8257532331968553 2.4713338382003056
head 8.129977069181766 -1.6487338677551908 0.6680371204309573
lclavicle -1.7273479302574968e-15 1.7847065488031225e-15
lhumerus -36.98764563511979 -17.873522902047636 95.26317737070697
lradius 110.66014914864188
lwrist 32.59249768810094
lhand -24.388035621968182 2.375543431828845
lfingers 7.12502
lthumb 1.8715758067416497 31.841878852777267
rclavicle -1.7251494040578417e-15 1.7870439017674228e-15
rhumerus -59.390072596685066 7.634944435293526 -94.38237592361706
rradius 110.28313889092071
rwrist -12.098325971477589
rhand -14.942553753137892 38.924355174676606
rfingers 7.12502
rthumb 10.988542255093098 10.46867675990764
39
root 0.04966023332836997 17.918616419142168 8.410116201974631 4.408384382184823 -4.930901774429224 -1.7908944123691555
lfemur 8.70867852665332 -0.9047808175538503 -24.690796324416752
ltibia 71.67851997069108
lfoot 16.67192149772737 -12.383239468806867
ltoes -5.568916006400668
rfemur -34.455954480179486 -3.55126697201436 30.535302056302392
rtibia 37.34658056020304
rfoot -3.5378023153316924 2.485858928724551
rtoes -4.241735247634258
lowerback 14.734523287233895 -0.9695063597517346 -0.5113457660996861
upperback -0.6030120907920129 -1.4914685498512683 2.296354955515836
thorax -9.746113198879694 -0.47162037846078786 4.3218977939156815
lowerneck -20.72955285930361 -2.9544365169285323 -1.9953479326579455
upperneck 14.638740835672946 -3.7572994275923737 2.293251177335406
head 8.099694636781296 -1.6398117832275612 0.5924673246355053
lclavicle -1.7282754907345013e-15 1.7840338782367567e-15
lhumerus -39.00009336708908 -17.518467063058175 95.96637130010778
lradius 107.47536569014895
lwrist 32.56711887479245
lhand -24.620032343679494 2.822164095078694
lfingers 7.12502
lthumb 1.595557399409767 32.39860125455163
rclavicle -1.724220013938265e-15 1.7878136473859925e-15
rhumerus -57.675847866272434 7.728603018667981 -94.17201631889223
rradius 109.98635145835172
rwrist -12.239374734903194
rhand -15.218442105411583 38.96192974579021
rfingers 7.12502
rthumb 10.815439197264393 10.345405426976882
40
root 0.061629146213238534 17.747917353010767 9.391390156746377 4.322059336516334 -5.351229871215194 -2.140760079730201
lfemur 5.591544969824847 1.169244228714495 -23.008193648708787
ltibia 79.45982863146148
lfoot 13.635768627018601 -10.615395249832952
ltoes -6.654400992502867
rfemur -33.58559429200441 -2.836796377321345 30.923518320391878
rtibia 43.86834734699778
rfoot -7.399178511871192 2.9369752096960857
rtoes 4.716864884825558
lowerback 14.772334677174799 -0.6889459259376818 -0.15945622233076118
upperback -0.5356913987541868 -0.995646776923123 2.5854416071456963
thorax -9.96834902656176 -0.28433133624099616 3.971590475408972
lowerneck -20.817380270036054 -2.921039598495381 -1.8612187948372134
upperneck 14.463021542334266 -3.6985460456742976 2.077354553641496
head 8.032040598616096 -1.6402740529794595 0.4800181536496463
lclavicle -1.7288400198888143e-15 1.7836242237334692e-15
lhumerus -40.92624112330453 -16.94449925146433 96.65811846871264
lradius 104.61781069856151
lwrist 33.82500676442449
lhand -25.400585965931736 2.490413206776225
lfingers 7.12502
lthumb 0.841379690018518 32.43894781051538
rclavicle -1.7242834321750686e-15 1.7879187946912595e-15
rhumerus -55.73586704653505 7.887076371616409 -94.03162368707196
rradius 109.56770017089958
rwrist -12.248448234075703
rhand -15.407192589921596 39.010588634942245
rfingers 7.12502
rthumb 10.685780226586429 10.166800303855647
41
root 0.05624603677240911 17.608135830128806 10.602183077669478 4.691100024309661 -5.931472693611345 -3.588029342687339
lfemur 1.533806030504353 3.7356399244655214 -19.849660414204326
ltibia 86.71097659367399
lfoot 10.527582103402382 -8.978647048800063
ltoes -6.721932211957185
rfemur -32.50504341454252 -0.9421275298838367 32.359903390031064
rtibia 50.85598059863792
rfoot -11.369132204817854 -0.34983307837730937
rtoes 6.59740193356026
lowerback 14.677107765472346 -0.3686704071465161 0.9908117935283571
upperback -0.6182438105900236 -0.30777565767575354 3.026750035944639
thorax -10.084157932538767 -0.030686593438269627 3.6106087425554887
lowerneck -21.106698204921795 -2.9344005456467546 -1.7289017583285964
upperneck 14.229568392089927 -3.710446292479613 1.9010605159629108
head 7.9794529002565 -1.660470933109381 0.37369646869357115
lclavicle -1.728821695578238e-15 1.7836376131403105e-15
lhumerus -42.827761484142584 -16.246141206724584 97.27517974620137
lradius 102.04106637026858
lwrist 34.638603946767994
lhand -25.98080807869888 2.2147020914006545
lfingers 7.12502
lthumb 0.3250065155207833 32.411089600108376
rclavicle -1.724179750851271e-15 1.7879451166890607e-15
rhumerus -53.69227151720506 8.078517240698293 -93.95891875819555
rradius 109.18136127666794
rwrist -12.162801262118771
rhand -15.579695660301894 39.152714726740385
rfingers 7.12502
rthumb 10.617276923220507 10.078971584153107
42
root 0.05111982207170304 17.485057824002798 11.925858041504553 4.996524982170842 -5.650313312700468 -5.6140459351739285
lfemur -3.2361627737178473 5.444116755862524 -15.938805495091044
ltibia 93.04936414566718
lfoot 7.742824107248523 -7.797996558453127
ltoes -4.452233635236135
rfemur -30.580629242338784 0.9507163860623765 34.40080938382687
rtibia 56.48742806281401
rfoot -14.247670053595153 -5.7647330168743
rtoes 5.656382609385348
lowerback 14.926859993984362 -0.3450896275065669 2.8368360692533887
upperback -0.8159726176304141 0.16797757189253182 3.6321375251314816
thorax -10.24745409236066 0.11539706651506709 3.056597241766254
lowerneck -21.402088787665157 -3.0046740937455203 -1.6334954854717012
upperneck 13.855364402356832 -3.8011705153250697 1.800062219646943
head 7.913359253053405 -1.713664242953367 0.29378434301256323
lclavicle -1.7293313896250418e-15 1.7832677673809217e-15
lhumerus -44.8078961330915 -15.572900732426852 97.84344665107781
lradius 99.73558114097405
lwrist 34.95784243899789
lhand -25.70419618333578 2.2367939228373386
lfingers 7.12502
lthumb 0.5600531442566294 32.41944338868067
rclavicle -1.724850545172811e-15 1.7874979169639043e-15
rhumerus -51.60632238277881 8.391775082739592 -93.9129074843576
rradius 108.92967884612248
rwrist -12.050947857246305
rhand -15.812509161403252 39.216485631875464
rfingers 7.12502
rthumb 10.552781784743695 9.960284385501307
43
root 0.05945529093430582 17.42749316412728 12.73051446612602 5.606911510423747 -4.881689149872012 -6.495133614479203
lfemur -8.82050616519095 6.377571132713559 -13.642820241527808
ltibia 97.94449945769244
lfoot 5.2697321813547084 -6.904671922652411
ltoes -1.1131746997588774
rfemur -28.925699030315243 2.7013400415471196 35.32799438731624
rtibia 60.71120787882322
rfoot -15.965808401222032 -11.354803013585782
rtoes 2.8478756312685354
lowerback 14.803826531054193 -0.34583879327877365 3.580347381421886
upperback -0.9336996134997507 0.33572803520053407 3.9801570775475636
thorax -10.492318720060915 0.1444762576165458 2.584626821858154
lowerneck -21.52117370721413 -3.099664335841646 -1.5687698252347
upperneck 13.38921109169176 -3.93493310814121 1.73912881805502
head 7.831209250212041 -1.783741443629655 0.23519993500410707
lclavicle -1.729308784148959e-15 1.7832841263065076e-15
lhumerus -46.79018985098549 -14.980890043973195 98.4262744159026
lradius 97.8710848130911
lwrist 35.11286071122434
lhand -25.066637740440633 2.4825602726070484
lfingers 7.12502
lthumb 1.168316941686484 32.48558944862073
rclavicle -1.7263793315655552e-15 1.78629511782307e-15
rhumerus -49.544850959021005 8.894471330798012 -93.86272633217891
rradius 108.90637345889166
rwrist -12.035247167340902
rhand -15.935940808646329 39.2960999262732
rfingers 7.12502
rthumb 10.482745239602908 9.879062503364013
